<svg width="40" height="35" viewBox="0 0 40 35" fill="none" xmlns="http://www.w3.org/2000/svg">
<rect width="40" height="35" rx="6" fill="#15487D" fill-opacity="0.1"/>
<g clip-path="url(#clip0_408_486)">
<path fill-rule="evenodd" clip-rule="evenodd" d="M24.0008 13.2362C24.0008 13.4297 23.9233 13.6233 23.784 13.7627L17.1255 20.4212C16.9861 20.5605 16.7926 20.6379 16.599 20.6379C16.4054 20.6379 16.2119 20.5605 16.0725 20.4212L12.2168 16.5654C12.0774 16.4261 12 16.2325 12 16.0389C12 15.8454 12.0774 15.6518 12.2168 15.5125L13.2698 14.4595C13.4091 14.3201 13.6027 14.2427 13.7962 14.2427C13.9898 14.2427 14.1834 14.3201 14.3227 14.4595L16.599 16.7435L21.678 11.6567C21.8174 11.5174 22.011 11.4399 22.2045 11.4399C22.3981 11.4399 22.5916 11.5174 22.731 11.6567L23.784 12.7097C23.9233 12.8491 24.0008 13.0426 24.0008 13.2362Z" fill="#15487D"/>
</g>
<defs>
<clipPath id="clip0_408_486">
<rect width="12" height="12" fill="white" transform="translate(12 10)"/>
</clipPath>
</defs>
</svg>
