<svg width="43" height="35" viewBox="0 0 43 35" fill="none" xmlns="http://www.w3.org/2000/svg">
<rect width="42.1795" height="35" rx="8" fill="#BBCEE1"/>
<path d="M29.0965 22.3047H30.75C30.75 19.7188 29.7228 17.2389 27.8943 15.4104C26.0658 13.5819 23.5859 12.5547 21 12.5547C18.4141 12.5547 15.9342 13.5819 14.1057 15.4104C12.2772 17.2389 11.25 19.7188 11.25 22.3047H12.904" stroke="#15487D" stroke-linecap="round" stroke-linejoin="round"/>
<path d="M27.957 22.3047C27.957 20.4595 27.224 18.69 25.9193 17.3853C24.6147 16.0806 22.8451 15.3477 21 15.3477M24.8165 22.3047C24.8165 21.2925 24.4144 20.3217 23.6987 19.606C22.9829 18.8903 22.0122 18.4882 21 18.4882" stroke="#15487D" stroke-linecap="round" stroke-linejoin="round"/>
<path d="M21.0004 23.4456C21.6305 23.4456 22.1414 22.9347 22.1414 22.3046C22.1414 21.6744 21.6305 21.1636 21.0004 21.1636C20.3702 21.1636 19.8594 21.6744 19.8594 22.3046C19.8594 22.9347 20.3702 23.4456 21.0004 23.4456Z" stroke="#15487D" stroke-linecap="round" stroke-linejoin="round"/>
<path d="M21 21.1636V13.3931" stroke="#15487D" stroke-linecap="round" stroke-linejoin="round"/>
</svg>
