<svg width="43" height="35" viewBox="0 0 43 35" fill="none" xmlns="http://www.w3.org/2000/svg">
<rect width="42.1795" height="35" rx="8" fill="#BBCEE1"/>
<path d="M12.6 15H29.4M12.6 21H29.4M12 18C12 19.1819 12.2328 20.3522 12.6851 21.4442C13.1374 22.5361 13.8003 23.5282 14.636 24.364C15.4718 25.1997 16.4639 25.8626 17.5558 26.3149C18.6478 26.7672 19.8181 27 21 27C22.1819 27 23.3522 26.7672 24.4442 26.3149C25.5361 25.8626 26.5282 25.1997 27.364 24.364C28.1997 23.5282 28.8626 22.5361 29.3149 21.4442C29.7672 20.3522 30 19.1819 30 18C30 15.6131 29.0518 13.3239 27.364 11.636C25.6761 9.94821 23.3869 9 21 9C18.6131 9 16.3239 9.94821 14.636 11.636C12.9482 13.3239 12 15.6131 12 18Z" stroke="#15487D" stroke-width="2" stroke-linecap="round" stroke-linejoin="round"/>
<path d="M20.4997 9C18.815 11.6996 17.9219 14.8179 17.9219 18C17.9219 21.1821 18.815 24.3004 20.4997 27M21.4997 9C23.1843 11.6996 24.0775 14.8179 24.0775 18C24.0775 21.1821 23.1843 24.3004 21.4997 27" stroke="#15487D" stroke-width="2" stroke-linecap="round" stroke-linejoin="round"/>
</svg>
