<svg width="43" height="35" viewBox="0 0 43 35" fill="none" xmlns="http://www.w3.org/2000/svg">
<rect width="42.1795" height="35" rx="8" fill="#BBCEE1"/>
<path d="M15 28C14.45 28 13.979 27.804 13.587 27.412C13.195 27.02 12.9993 26.5493 13 26V16C13 15.45 13.196 14.979 13.588 14.587C13.98 14.195 14.4507 13.9993 15 14H16V12C16 10.6167 16.4877 9.43733 17.463 8.462C18.4383 7.48667 19.6173 6.99933 21 7C22.3833 7 23.5627 7.48767 24.538 8.463C25.5133 9.43833 26.0007 10.6173 26 12V14H27C27.55 14 28.021 14.196 28.413 14.588C28.805 14.98 29.0007 15.4507 29 16V26C29 26.55 28.804 27.021 28.412 27.413C28.02 27.805 27.5493 28.0007 27 28H15ZM15 26H27V16H15V26ZM21 23C21.55 23 22.021 22.804 22.413 22.412C22.805 22.02 23.0007 21.5493 23 21C23 20.45 22.804 19.979 22.412 19.587C22.02 19.195 21.5493 18.9993 21 19C20.45 19 19.979 19.196 19.587 19.588C19.195 19.98 18.9993 20.4507 19 21C19 21.55 19.196 22.021 19.588 22.413C19.98 22.805 20.4507 23.0007 21 23ZM18 14H24V12C24 11.1667 23.7083 10.4583 23.125 9.875C22.5417 9.29167 21.8333 9 21 9C20.1667 9 19.4583 9.29167 18.875 9.875C18.2917 10.4583 18 11.1667 18 12V14Z" fill="#15487D"/>
</svg>
