<svg width="43" height="35" viewBox="0 0 43 35" fill="none" xmlns="http://www.w3.org/2000/svg">
<rect width="42.1795" height="35" rx="8" fill="#BBCEE1"/>
<path d="M21.0004 10.6001C21.8304 10.6001 22.5004 11.2701 22.5004 12.1001C22.5004 12.9301 21.8304 13.6101 21.0004 13.6101C20.1804 13.6101 19.5004 12.9301 19.5004 12.1001C19.5004 11.2701 20.1804 10.6001 21.0004 10.6001ZM14.4004 15.3601C14.4004 14.7101 21.0004 14.6001 21.0004 14.6001C21.0004 14.6001 27.6004 14.7101 27.6004 15.3601C27.6004 16.0101 23.1304 16.7601 23.1304 16.7601C23.1304 16.7601 24.8204 24.9001 24.1904 25.1401C23.5704 25.3801 21.0004 19.9501 21.0004 19.9501C21.0004 19.9501 18.4404 25.3801 17.8204 25.1401C17.1904 24.9001 18.8804 16.7601 18.8804 16.7601C18.8804 16.7601 14.4004 16.0101 14.4004 15.3601Z" fill="#15487D"/>
</svg>
