<svg width="43" height="35" viewBox="0 0 43 35" fill="none" xmlns="http://www.w3.org/2000/svg">
<rect width="42.1795" height="35" rx="8" fill="#BBCEE1"/>
<path d="M21 10C22.0609 10 23.0783 10.4214 23.8284 11.1716C24.5786 11.9217 25 12.9391 25 14C25 15.0609 24.5786 16.0783 23.8284 16.8284C23.0783 17.5786 22.0609 18 21 18C19.9391 18 18.9217 17.5786 18.1716 16.8284C17.4214 16.0783 17 15.0609 17 14C17 12.9391 17.4214 11.9217 18.1716 11.1716C18.9217 10.4214 19.9391 10 21 10ZM21 12C20.4696 12 19.9609 12.2107 19.5858 12.5858C19.2107 12.9609 19 13.4696 19 14C19 14.5304 19.2107 15.0391 19.5858 15.4142C19.9609 15.7893 20.4696 16 21 16C21.5304 16 22.0391 15.7893 22.4142 15.4142C22.7893 15.0391 23 14.5304 23 14C23 13.4696 22.7893 12.9609 22.4142 12.5858C22.0391 12.2107 21.5304 12 21 12ZM21 19C23.67 19 29 20.33 29 23V26H13V23C13 20.33 18.33 19 21 19ZM21 20.9C18.03 20.9 14.9 22.36 14.9 23V24.1H27.1V23C27.1 22.36 23.97 20.9 21 20.9Z" fill="#15487D"/>
</svg>
